<svg xmlns="http://www.w3.org/2000/svg" viewBox="0 0 1400 560" role="img" aria-label="Pixel farm panorama" shape-rendering="crispEdges">
  <rect width="1400" height="560" fill="#78cdfc"/>
  <rect y="304" width="1400" height="256" fill="#6ac35c"/>

  <rect x="0" y="412" width="1400" height="148" fill="#4ea145"/>

  <rect x="90" y="344" width="320" height="108" fill="#ab8557"/>
  <rect x="102" y="354" width="296" height="20" fill="#bc9565"/>
  <rect x="102" y="384" width="296" height="14" fill="#8f6d48"/>

  <rect x="450" y="344" width="320" height="108" fill="#ab8557"/>
  <rect x="462" y="354" width="296" height="20" fill="#bc9565"/>
  <rect x="462" y="384" width="296" height="14" fill="#8f6d48"/>

  <rect x="810" y="344" width="320" height="108" fill="#ab8557"/>
  <rect x="822" y="354" width="296" height="20" fill="#bc9565"/>
  <rect x="822" y="384" width="296" height="14" fill="#8f6d48"/>

  <rect x="1140" y="344" width="170" height="108" fill="#58a7e0"/>
  <rect x="1152" y="360" width="44" height="26" fill="#89d2ff"/>
  <rect x="1210" y="360" width="44" height="26" fill="#89d2ff"/>

  <rect x="540" y="262" width="152" height="92" fill="#ead09b"/>
  <rect x="560" y="224" width="112" height="42" fill="#c65145"/>
  <rect x="604" y="286" width="28" height="68" fill="#936348"/>

  <rect x="262" y="276" width="22" height="70" fill="#4b8f3d"/>
  <rect x="242" y="240" width="62" height="40" fill="#69c35b"/>

  <rect x="980" y="278" width="22" height="70" fill="#4b8f3d"/>
  <rect x="958" y="242" width="66" height="40" fill="#69c35b"/>

  <rect x="360" y="316" width="32" height="26" fill="#fff0e4"/>
  <rect x="404" y="316" width="32" height="26" fill="#fff0e4"/>

  <rect x="710" y="318" width="32" height="26" fill="#fff0e4"/>
  <rect x="754" y="318" width="32" height="26" fill="#fff0e4"/>

  <rect x="110" y="108" width="170" height="42" fill="#ffffff"/>
  <rect x="132" y="84" width="58" height="24" fill="#ffffff"/>
  <rect x="196" y="78" width="50" height="30" fill="#ffffff"/>

  <rect x="1040" y="96" width="190" height="46" fill="#ffffff"/>
  <rect x="1066" y="68" width="64" height="28" fill="#ffffff"/>
  <rect x="1140" y="62" width="56" height="34" fill="#ffffff"/>
</svg>
