<svg xmlns="http://www.w3.org/2000/svg" viewBox="0 0 860 540" role="img" aria-label="Pixel island scene" shape-rendering="crispEdges">
  <rect width="860" height="540" fill="#7fd2ff"/>
  <rect y="330" width="860" height="210" fill="#4d9fdb"/>

  <rect x="48" y="64" width="130" height="34" fill="#ffffff"/>
  <rect x="70" y="46" width="44" height="18" fill="#ffffff"/>
  <rect x="122" y="40" width="36" height="22" fill="#ffffff"/>

  <rect x="640" y="96" width="154" height="38" fill="#ffffff"/>
  <rect x="662" y="74" width="56" height="22" fill="#ffffff"/>
  <rect x="726" y="66" width="48" height="28" fill="#ffffff"/>

  <rect x="118" y="228" width="628" height="214" fill="#6bbf59"/>
  <rect x="150" y="260" width="564" height="162" fill="#78ca63"/>

  <rect x="176" y="286" width="146" height="56" fill="#a27e54"/>
  <rect x="182" y="292" width="134" height="16" fill="#b18b61"/>
  <rect x="182" y="314" width="134" height="12" fill="#8f6d47"/>

  <rect x="344" y="286" width="146" height="56" fill="#a27e54"/>
  <rect x="350" y="292" width="134" height="16" fill="#b18b61"/>
  <rect x="350" y="314" width="134" height="12" fill="#8f6d47"/>

  <rect x="512" y="286" width="146" height="56" fill="#a27e54"/>
  <rect x="518" y="292" width="134" height="16" fill="#b18b61"/>
  <rect x="518" y="314" width="134" height="12" fill="#8f6d47"/>

  <rect x="228" y="360" width="100" height="52" fill="#e9cc8e"/>
  <rect x="242" y="334" width="72" height="30" fill="#d25f4e"/>
  <rect x="262" y="374" width="20" height="38" fill="#8d5a3f"/>

  <rect x="532" y="352" width="124" height="44" fill="#58a8e2"/>
  <rect x="546" y="368" width="28" height="16" fill="#8cd1ff"/>
  <rect x="586" y="368" width="28" height="16" fill="#8cd1ff"/>

  <rect x="148" y="372" width="26" height="34" fill="#4b8f3e"/>
  <rect x="136" y="344" width="50" height="30" fill="#6ac55e"/>
  <rect x="688" y="370" width="26" height="36" fill="#4b8f3e"/>
  <rect x="674" y="342" width="54" height="30" fill="#6ac55e"/>

  <rect x="430" y="354" width="26" height="40" fill="#f9f2df"/>
  <rect x="404" y="344" width="22" height="22" fill="#fef5e4"/>
  <rect x="456" y="344" width="22" height="22" fill="#fef5e4"/>

  <rect x="0" y="426" width="860" height="114" fill="#3f88c2"/>
  <rect x="0" y="434" width="860" height="8" fill="#6cc1ed"/>
  <rect x="0" y="456" width="860" height="8" fill="#6cc1ed"/>
</svg>
