<svg xmlns="http://www.w3.org/2000/svg" viewBox="0 0 1200 640" role="img" aria-label="Pixel world map" shape-rendering="crispEdges">
  <rect width="1200" height="640" fill="#5ea9df"/>

  <rect x="120" y="120" width="960" height="420" fill="#86ce70"/>
  <rect x="164" y="160" width="420" height="300" fill="#68b85b"/>
  <rect x="618" y="168" width="390" height="220" fill="#d6b56a"/>
  <rect x="600" y="110" width="238" height="170" fill="#87505b"/>
  <rect x="466" y="330" width="320" height="188" fill="#6fb8e4"/>

  <rect x="200" y="198" width="44" height="38" fill="#4f9542"/>
  <rect x="260" y="220" width="44" height="38" fill="#4f9542"/>
  <rect x="320" y="198" width="44" height="38" fill="#4f9542"/>
  <rect x="380" y="228" width="44" height="38" fill="#4f9542"/>

  <rect x="684" y="214" width="54" height="42" fill="#c8934e"/>
  <rect x="752" y="236" width="54" height="42" fill="#c8934e"/>
  <rect x="820" y="214" width="54" height="42" fill="#c8934e"/>

  <rect x="652" y="146" width="64" height="54" fill="#6f3646"/>
  <rect x="736" y="136" width="64" height="54" fill="#6f3646"/>

  <rect x="520" y="372" width="60" height="44" fill="#8dd3ff"/>
  <rect x="600" y="392" width="60" height="44" fill="#8dd3ff"/>
  <rect x="680" y="370" width="60" height="44" fill="#8dd3ff"/>

  <rect x="210" y="504" width="250" height="16" fill="#3f8f3f"/>
  <rect x="492" y="504" width="250" height="16" fill="#4d9dc9"/>
  <rect x="774" y="504" width="250" height="16" fill="#b18f57"/>

  <rect x="124" y="68" width="220" height="34" fill="#ffffff"/>
  <rect x="860" y="64" width="234" height="38" fill="#ffffff"/>

  <text x="190" y="186" fill="#13354f" font-size="26" font-family="monospace">FOREST</text>
  <text x="702" y="206" fill="#5a3d21" font-size="26" font-family="monospace">DESERT</text>
  <text x="646" y="126" fill="#f7d8d8" font-size="24" font-family="monospace">VOLCANO</text>
  <text x="534" y="356" fill="#0f4d72" font-size="26" font-family="monospace">LAKE</text>
</svg>
