<svg xmlns="http://www.w3.org/2000/svg" viewBox="0 0 32 32" role="img" aria-label="USDC">
  <circle cx="16" cy="16" r="15" fill="#2775ca" />
  <circle cx="16" cy="16" r="10.5" fill="none" stroke="#ffffff" stroke-width="2" />
  <path d="M17.4 8.7h-2.2v2.1c-2.5.3-4.2 1.8-4.2 4 0 2.3 1.7 3.4 4.5 4.1l.5.1v3.4c-1.4-.2-2.6-.8-3.5-1.8l-1.5 1.8c1.3 1.4 2.9 2.2 5 2.4V27h2.2v-2.1c2.8-.3 4.5-1.8 4.5-4.2 0-2.4-1.7-3.5-4.7-4.2l-.3-.1v-3.2c1.1.2 2 .7 2.8 1.5l1.5-1.7c-1.1-1.1-2.4-1.8-4.3-2V8.7zm-1.1 7.2c-1.6-.4-2.2-.8-2.2-1.6 0-.8.7-1.4 1.9-1.6v3.2h.3zm1 3.1c1.7.4 2.3.8 2.3 1.7 0 .9-.7 1.5-2 1.7V19z" fill="#ffffff"/>
</svg>
